<?xml version="1.0" encoding="UTF-8" standalone="no"?>
<svg
   xmlns:dc="http://purl.org/dc/elements/1.1/"
   xmlns:cc="http://creativecommons.org/ns#"
   xmlns:rdf="http://www.w3.org/1999/02/22-rdf-syntax-ns#"
   xmlns:svg="http://www.w3.org/2000/svg"
   xmlns="http://www.w3.org/2000/svg"
   xmlns:sodipodi="http://sodipodi.sourceforge.net/DTD/sodipodi-0.dtd"
   xmlns:inkscape="http://www.inkscape.org/namespaces/inkscape"
   width="75pt"
   height="75pt"
   viewBox="0 0 75 75"
   version="1.1"
   id="svg19"
   sodipodi:docname="turtle_shield.svg"
   inkscape:version="0.92.1 r15371">
  <metadata
     id="metadata25">
    <rdf:RDF>
      <cc:Work
         rdf:about="">
        <dc:format>image/svg+xml</dc:format>
        <dc:type
           rdf:resource="http://purl.org/dc/dcmitype/StillImage" />
        <dc:title />
      </cc:Work>
    </rdf:RDF>
  </metadata>
  <defs
     id="defs23" />
  <sodipodi:namedview
     pagecolor="#ffffff"
     bordercolor="#666666"
     borderopacity="1"
     objecttolerance="10"
     gridtolerance="10"
     guidetolerance="10"
     inkscape:pageopacity="0"
     inkscape:pageshadow="2"
     inkscape:window-width="1360"
     inkscape:window-height="706"
     id="namedview21"
     showgrid="false"
     inkscape:zoom="0.885"
     inkscape:cx="-75.141246"
     inkscape:cy="160.79012"
     inkscape:window-x="-8"
     inkscape:window-y="-8"
     inkscape:window-maximized="1"
     inkscape:current-layer="#ffffffff" />
  <g
     id="#005500ff"
     transform="translate(0,-125.00001)" />
  <g
     id="#003300ff"
     transform="translate(0,-125.00001)" />
  <g
     id="#ffffffff"
     style="fill:#000000"
     transform="translate(0,-125.00001)">
    <path
       d="m 34.070217,131.78988 c 1.57,-0.775 3.055,-1.87 4.82,-2.13 1.155001,0.11 2.170001,0.73 3.190001,1.23 2.805,1.545 5.675,2.97 8.425,4.615 -1.89,3.5 -3.91,6.93 -5.86,10.4 -2.59,0.055 -5.185001,0.035 -7.780001,0.08 -1.195,-0.01 -2.425,0.06 -3.59,-0.27 -1.195,-1.385 -1.925,-3.085 -2.85,-4.65 -0.99,-1.81 -2.19,-3.52 -2.93,-5.455 1.95,-1.645 4.385,-2.55 6.575,-3.82 z"
       id="path4"
       style="opacity:1;fill:#ffffff;stroke:#ffffff;stroke-width:0.046875"
       inkscape:connector-curvature="0" />
    <path
       d="m 15.820217,141.49488 c 2.78,-1.405 5.505,-2.905 8.275,-4.33 2.335,3.305 4.15,6.93 6.115,10.46 -1.13,2.42 -2.455,4.735 -3.715,7.085 -0.54,0.95 -1.045,1.945 -1.85,2.7 -0.86,0.36 -1.81,0.31 -2.715,0.335 -2.54,-0.035 -5.08,-0.15 -7.62,-0.18 -0.16,-0.165 -0.48,-0.49 -0.64,-0.65 -0.365,-3.465 -0.92,-6.905 -1.18,-10.375 -0.03,-1.025 -0.18,-2.115 0.25,-3.075 0.875,-0.865 2.01,-1.395 3.08,-1.97 z"
       id="path6"
       style="opacity:1;fill:#ffffff;stroke:#ffffff;stroke-width:0.046875"
       inkscape:connector-curvature="0" />
    <path
       d="m 49.285218,144.48488 c 1.455,-2.45 2.78,-4.98 4.415,-7.32 2.88,1.485 5.73,3.03 8.62,4.485 1.065,0.585 2.23,1.135 2.975,2.135 0.37,1.49 0.02,3.035 -0.13,4.535 -0.465,3.115 -0.445,6.315 -1.42,9.34 -2.635,-0.09 -5.265,0.045 -7.9,0.08 -0.9,-0.025 -1.85,0.03 -2.69,-0.35 -1.295,-1.315 -1.97,-3.085 -2.895,-4.65 -0.86,-1.68 -2.045,-3.25 -2.455,-5.115 0.29,-1.13 0.915,-2.13 1.48,-3.14 z"
       id="path8"
       style="opacity:1;fill:#ffffff;stroke:#ffffff;stroke-width:0.046875"
       inkscape:connector-curvature="0" />
    <path
       d="m 32.855217,149.86488 c 3.16,-0.505 6.38,-0.43 9.570001,-0.38 0.815,0.09 1.825,-0.035 2.405,0.675 1.4,1.675 2.325,3.675 3.485,5.51 0.645,1.21 1.535,2.44 1.48,3.87001 -0.28,1.345 -1.12,2.48 -1.775,3.665 -1.02,1.645 -1.82,3.43 -3.03,4.95 -0.695,0.97 -2,0.93 -3.06,1.02 -2.930001,0.11 -5.865001,0.015 -8.780001,-0.29 -1.4,-2.44 -2.84,-4.855 -4.275,-7.27 -0.53,-0.98 -1.26,-2.12 -0.715,-3.25001 1.235,-3.005 3.33,-5.56 4.695,-8.5 z"
       id="path10"
       style="opacity:1;fill:#ffffff;stroke:#ffffff;stroke-width:0.046875"
       inkscape:connector-curvature="0" />
    <path
       d="m 14.750217,161.13489 c 3.27,0.06 6.62,-0.42 9.845,0.25 1.44,1.325 2.16,3.215 3.17,4.855 0.79,1.555 1.94,3.035 2.14,4.815 -0.22,1.145 -0.84,2.155 -1.39,3.165 -1.43,2.465 -2.845,4.945 -4.35,7.37 -4.16,-6.285 -7.685,-13.08 -9.415,-20.455 z"
       id="path12"
       style="opacity:1;fill:#ffffff;stroke:#ffffff;stroke-width:0.046875"
       inkscape:connector-curvature="0" />
    <path
       d="m 53.210218,161.41989 c 3.2,-0.735 6.555,-0.215 9.815,-0.28 -1.65,7.33 -5.12,14.13 -9.35,20.295 -1.61,-2.32 -2.96,-4.8 -4.375,-7.235 -0.56,-1.01 -1.17,-2.02 -1.45,-3.145 0.345,-1.875 1.52,-3.455 2.38,-5.12 0.925,-1.54 1.635,-3.28 2.98,-4.515 z"
       id="path14"
       style="opacity:1;fill:#ffffff;stroke:#ffffff;stroke-width:0.046875"
       inkscape:connector-curvature="0" />
    <path
       d="m 33.245217,172.94989 c 1.825,-0.55 3.77,-0.28 5.645,-0.35 1.880001,0.075 3.830001,-0.205 5.655001,0.345 1.475,1.625 2.28,3.715 3.415,5.565 1.065,1.995 2.525,3.82 3.09,6.04 -0.645,1.34 -1.705,2.42 -2.715,3.49 -1.98,2.02 -4.04,3.965 -6.2,5.79 -0.985,0.78 -2,1.625 -3.245001,1.94 -1.24,-0.33 -2.24,-1.18 -3.22,-1.96 -2.25,-1.9 -4.395,-3.93 -6.44,-6.05 -0.925,-0.985 -1.88,-1.98 -2.485,-3.2 0.595,-2.195 2.035,-4.02 3.1,-6 1.135,-1.865 1.96,-3.945 3.4,-5.61 z"
       id="path16"
       style="opacity:1;fill:#ffffff;stroke:#ffffff;stroke-width:0.046875"
       inkscape:connector-curvature="0" />
  </g>
</svg>
